<svg width="45" height="24" viewBox="0 0 45 24" fill="none" xmlns="http://www.w3.org/2000/svg">
<g clip-path="url(#clip0_2288_8380)">
<path d="M10.7405 8.4C10.7405 8.46 10.6804 8.52 10.6804 8.58H20.8809C20.8209 8.7 20.8209 8.88 20.7609 9H23.641V8.94H33.8414V8.82H44.0419C43.9218 8.4 43.7418 7.92 43.6218 7.5H33.4214C33.4214 7.44 33.4214 7.44 33.3614 7.38H23.161C23.161 7.38 23.161 7.32 23.101 7.32H21.3609C21.3009 7.44 21.2409 7.62 21.1809 7.74H10.9805C10.9805 7.8 10.9205 7.86 10.9205 7.92H0.72003C0.660028 8.1 0.600025 8.28 0.540023 8.4H10.7405ZM12.7805 4.56C12.7205 4.62 12.6605 4.68 12.6605 4.74H21.6009C21.6009 4.8 21.6009 4.86 21.6609 4.86H22.741C22.681 4.92 22.621 5.04 22.5609 5.1H32.0414C32.0414 5.04 31.9813 5.04 31.9813 4.98H42.1818C41.8218 4.5 41.4617 4.08 41.1017 3.66H30.9013C30.8413 3.66 30.7813 3.6 30.7813 3.6H23.821L23.581 3.84H20.7609L20.8809 3.96H13.3206L13.1406 4.14H2.94012C2.82012 4.26 2.70011 4.44 2.58011 4.56H12.7805ZM17.2807 1.02H27.0611C25.6211 0.36 23.941 0 22.2009 0C20.4609 0 18.7808 0.36 17.2807 1.02ZM27.4212 1.2H37.6216C36.0015 0.42 34.2614 0 32.4014 0C30.6013 0 28.8612 0.42 27.3011 1.14C27.2411 1.14 27.2411 1.2 27.1811 1.2H27.4212ZM16.2007 0.78C15.6607 0.6 15.1806 0.42 14.6406 0.3H9.36039C8.82037 0.42 8.28035 0.6 7.80033 0.78H16.2007ZM44.1019 9.42H33.9014V9.3H23.701V9.24H20.7009C20.6409 9.36 20.6409 9.54 20.5809 9.66H10.3804C10.3804 9.72 10.3804 9.78 10.3204 9.84H0.120005C0.120005 10.02 0.0600025 10.14 0.0600025 10.32H10.2604V10.5H20.4609C20.4609 10.62 20.4009 10.8 20.4009 10.92H24.001V10.86H34.2014V10.74H44.4019C44.2819 10.32 44.2219 9.84 44.1019 9.42ZM14.6406 2.7C14.5806 2.76 14.5206 2.82 14.4006 2.88H19.7408L19.8608 3H24.481C24.361 3.06 24.301 3.18 24.241 3.24H30.3613L30.2413 3.12H40.4417C39.9017 2.64 39.3017 2.22 38.7016 1.8H28.5012C28.4412 1.74 28.3812 1.74 28.3212 1.68H26.2811C26.1611 1.74 26.0411 1.86 25.8611 1.92H18.5408C18.6008 1.98 18.6608 1.98 18.7208 2.04H15.6007C15.5407 2.1 15.4206 2.16 15.3606 2.22H5.16022C4.92021 2.4 4.7402 2.52 4.56019 2.7H14.6406ZM11.5205 6.48C11.4605 6.54 11.4605 6.6 11.4605 6.66H21.6609C21.6009 6.78 21.5409 6.96 21.4809 7.08H23.041C23.041 7.08 23.041 7.02 22.981 7.02H33.1814C33.1814 6.96 33.1214 6.96 33.1214 6.9H43.3218C43.0818 6.42 42.8418 6 42.6018 5.58H32.4014C32.4014 5.52 32.3414 5.52 32.3414 5.46H22.3209C22.2609 5.52 22.2609 5.58 22.2009 5.64C22.1409 5.7 22.1409 5.76 22.0809 5.82H11.8805C11.8205 5.88 11.8205 5.94 11.7605 6H1.56007C1.50006 6.18 1.38006 6.3 1.32006 6.48H11.5205ZM0.180008 14.16H10.3804C10.3804 14.22 10.3804 14.28 10.4404 14.34H20.6409C20.6409 14.46 20.7009 14.64 20.7609 14.76H23.761V14.7H33.9614V14.58H44.1619C44.2819 14.16 44.3419 13.74 44.4019 13.26H34.2014V13.14H24.001V13.08H20.4609C20.4609 13.2 20.4609 13.38 20.5209 13.5H10.3204V13.68H0.120005C0.120005 13.86 0.180008 13.98 0.180008 14.16ZM27.6012 22.8H27.1211C27.1811 22.8 27.1811 22.86 27.2411 22.86C28.8612 23.58 30.6013 24 32.4014 24C34.2614 24 36.0015 23.58 37.6216 22.8H27.6012ZM34.2014 11.34V11.22H24.001V11.16H20.4609V11.58H10.2004V11.76H0V12.24H10.2004V12.42H20.4009V12.84H24.001V12.78H34.2014V12.66H44.4019V11.34H34.2014ZM33.7814 15.18V15.06H23.581V15H20.7009C20.7609 15.12 20.7609 15.3 20.8209 15.42H10.6204C10.6204 15.48 10.6804 15.54 10.6804 15.6H0.48002C0.540023 15.78 0.600025 15.9 0.660028 16.08H10.8605C10.8605 16.14 10.9205 16.2 10.9205 16.26H21.1209C21.1809 16.38 21.2409 16.56 21.3009 16.68H23.041C23.041 16.68 23.041 16.62 23.101 16.62H33.3014C33.3014 16.56 33.3014 16.56 33.3614 16.5H43.5618C43.7418 16.08 43.8618 15.66 43.9819 15.18H33.7814ZM27.1211 22.98H17.2807C18.7808 23.64 20.4609 24 22.2009 24C23.941 24 25.6211 23.64 27.1211 22.98ZM25.8611 22.08C25.9811 22.14 26.1011 22.26 26.2811 22.32H28.3212C28.3812 22.26 28.4412 22.26 28.5012 22.2H38.7016C39.3017 21.84 39.9017 21.36 40.4417 20.88H30.2413L30.3613 20.76H24.241L24.481 21H19.8608L19.7408 21.12H14.4006C14.4606 21.18 14.5206 21.24 14.6406 21.3H4.44019C4.62019 21.48 4.8602 21.6 5.04021 21.78H15.2406C15.3006 21.84 15.4206 21.9 15.4807 21.96H18.6008C18.5408 22.02 18.4808 22.02 18.4208 22.08H25.8611ZM33.1214 17.1C33.1214 17.04 33.1814 17.04 33.1814 16.98H22.981C22.981 16.98 22.981 16.92 23.041 16.92H21.4809C21.5409 17.04 21.6009 17.22 21.6609 17.34H11.4605C11.4605 17.4 11.5205 17.46 11.5205 17.52H1.32006C1.38006 17.7 1.50006 17.82 1.56007 18H11.7605C11.8205 18.06 11.8205 18.12 11.8805 18.18H22.0809C22.1409 18.24 22.1409 18.3 22.2009 18.36C22.2609 18.42 22.2609 18.48 22.3209 18.54H32.3414C32.3414 18.48 32.4014 18.48 32.4014 18.42H42.6018C42.8418 18 43.0818 17.58 43.3218 17.1H33.1214ZM16.2007 23.22H7.74033C8.28035 23.4 8.76037 23.58 9.30039 23.7H14.5806C15.1806 23.58 15.7207 23.4 16.2007 23.22ZM31.9813 19.02C31.9813 18.96 32.0414 18.96 32.0414 18.9H22.5609C22.621 18.96 22.681 19.08 22.741 19.14H21.6609C21.6609 19.2 21.6009 19.2 21.6009 19.26H12.6005C12.6605 19.32 12.6605 19.38 12.7205 19.44H2.52011C2.64011 19.62 2.76012 19.74 2.94012 19.92H13.1406L13.3206 20.1H20.8809L20.7609 20.22H23.581L23.821 20.46H30.7213L30.8413 20.34H41.0417C41.4617 19.92 41.8218 19.5 42.1218 19.02H31.9813Z" fill="#F01438"/>
</g>
<defs>
<clipPath id="clip0_2288_8380">
<rect width="44.4019" height="24" fill="white"/>
</clipPath>
</defs>
</svg>
