<svg width="362" height="252" viewBox="0 0 362 252" fill="none" xmlns="http://www.w3.org/2000/svg">
<path d="M85.316 10.9755L85.6235 10.8982C88.1862 10.2302 90.4665 8.82149 92.8763 7.94199C117.004 -0.862764 143.223 0.133232 167.614 7.31848C170.411 8.14248 180.652 11.1137 182.291 10.559C201.131 4.17624 219.991 -0.699511 240.123 0.0824895C247.273 0.360239 253.491 -0.160013 260.843 1.27399C285.293 6.04299 309.448 16.6957 326.058 35.8092C328.096 38.154 329.681 41.049 331.193 43.7202C333.323 47.4797 334.098 52.1037 336.861 55.4555C343.356 61.6305 358.131 67.4762 360.726 76.849C360.913 77.5385 361.081 78.2327 361.233 78.9307C360.206 81.4802 359.041 83.4187 356.378 84.5362C347.623 88.213 317.171 83.6755 306.758 82.7535C298.111 82.0512 289.456 81.4595 280.793 80.9787C272.816 80.4982 261.726 80.5372 253.611 80.6675C251.856 84.796 248.583 89.059 245.688 92.5292C229.413 112.042 207.973 126.821 185.041 137.488C184.783 137.608 184.428 137.73 184.153 137.828C183.473 138.043 183.358 138.085 182.621 138.18L182.458 137.823L183.001 136.428C189.718 122.946 194.456 110.559 197.858 95.7355C199.448 88.813 200.536 80.1845 202.516 73.6207C210.543 73.6867 233.501 74.622 239.951 72.7977C242.606 72.0322 245.026 70.61 246.988 68.6617C248.068 67.5997 248.973 66.3707 249.666 65.0217C250.733 62.9112 252.776 60.2742 253.558 58.0235C253.259 58.7748 254.464 55.4476 256.747 50.0006C252.179 50.5119 246.354 50.3429 241.682 50.3394L218.072 50.3164L137.964 50.3496C137.964 50.3496 136.716 57.5355 130.051 66.8662C128.674 68.793 126.683 71.7565 125.043 73.3407L124.793 73.5777C139.473 73.5297 162.472 72.6582 177.151 72.7977C176.757 81.8032 173.321 93.4897 170.964 102.245C170.314 104.659 169.256 109.169 168.502 111.321C164.626 112.924 152.679 115.966 148.841 117.736C119.095 131.458 89.1107 148.695 71.4555 177.323C68.1555 182.673 65.5615 188.628 63.0135 194.35C72.2657 194.563 80.573 199.148 86.9883 205.703C92.2878 211.12 96.3145 221.485 97.1563 229.04C82.167 228.268 66.037 227.183 51.1675 229.39C32.5493 232.24 14.9508 239.74 0 251.195C0.0785 246.27 0.519752 236.36 1.593 231.643C4.16925 220.318 11.1378 208.863 19.4998 200.885C22.6933 197.838 26.2888 194.865 29.7163 192.083C32.213 190.055 36.4973 187.755 38.3675 185.508C37.9595 165.293 42.7573 147.145 50.2568 128.543C59.4385 105.767 72.4388 87.1525 88.301 68.636C93.1738 62.9805 98.124 57.3922 103.15 51.8727C106.584 48.1755 110.323 44.61 113.382 40.5915C115.073 38.3687 115.786 36.07 117.066 33.862C109.65 25.5635 103.301 21.1162 93.6845 15.6667C90.7788 14.02 88.407 12.4682 85.316 10.9755Z" fill="#00FF88"/>
</svg>
